<?xml version="1.0" standalone="no"?>
<!DOCTYPE svg PUBLIC "-//W3C//DTD SVG 20010904//EN"
 "http://www.w3.org/TR/2001/REC-SVG-20010904/DTD/svg10.dtd">
<svg version="1.0" xmlns="http://www.w3.org/2000/svg"
 width="512.000000pt" height="512.000000pt" viewBox="0 0 512.000000 512.000000"
 preserveAspectRatio="xMidYMid meet">

<g transform="translate(0.000000,512.000000) scale(0.100000,-0.100000)"
fill="#000000" stroke="none">
<path d="M385 5012 c-120 -42 -205 -117 -258 -230 l-32 -67 0 -1900 0 -1900
28 -60 c15 -32 39 -74 53 -93 38 -50 117 -108 181 -134 l58 -23 1455 -5 1454
-5 187 -220 c234 -275 240 -280 327 -280 54 0 73 5 99 23 41 29 1051 1215
1075 1262 10 19 18 42 18 52 0 17 -54 18 -1190 18 l-1190 0 0 28 c1 45 26 79
257 355 153 182 233 269 257 281 32 15 97 16 696 14 l660 -3 0 1265 c0 1397 3
1328 -63 1439 -42 69 -106 126 -187 165 l-65 31 -1885 2 c-1768 2 -1888 1
-1935 -15z m696 -261 c31 -31 36 -59 17 -94 -20 -38 -40 -46 -115 -47 -61 0
-76 3 -99 24 -21 18 -28 32 -28 61 0 29 7 43 28 61 23 20 38 24 97 24 65 0 73
-2 100 -29z m404 19 c30 -11 54 -60 47 -96 -8 -45 -47 -64 -126 -64 -73 1 -94
9 -114 47 -19 35 -14 63 17 94 26 26 36 29 90 29 33 0 71 -4 86 -10z m944
-775 c31 -15 41 -33 41 -71 0 -13 -39 -180 -87 -371 -69 -276 -91 -352 -109
-370 -49 -49 -136 -12 -136 57 0 41 155 670 177 718 22 49 65 63 114 37z
m-589 -85 c10 -5 23 -23 29 -41 18 -52 -3 -80 -141 -184 -71 -52 -128 -99
-127 -103 0 -4 57 -50 127 -102 70 -52 133 -107 140 -122 30 -63 -45 -136
-107 -105 -36 18 -351 254 -373 279 -21 23 -24 77 -5 101 6 9 93 77 192 151
186 140 214 153 265 126z m1192 -127 c101 -75 188 -144 195 -152 13 -17 17
-60 7 -85 -3 -8 -91 -79 -196 -158 -156 -116 -196 -142 -224 -142 -60 0 -100
65 -72 117 7 13 68 66 136 117 67 50 124 96 127 101 3 4 -55 54 -129 109 -147
111 -161 131 -132 188 18 34 28 40 73 41 26 1 66 -24 215 -136z m14 -996 c31
-37 31 -81 -1 -112 l-24 -25 -1059 0 -1059 0 -20 23 c-30 33 -34 54 -19 92 11
25 24 37 48 44 20 6 428 9 1071 8 l1039 -2 24 -28z m1110 0 c31 -36 31 -78 0
-114 l-24 -28 -394 -3 c-266 -2 -405 0 -430 8 -82 24 -87 133 -8 163 8 3 199
5 423 4 l409 -2 24 -28z m-1450 -340 c31 -36 31 -78 0 -114 l-24 -28 -405 -3
c-249 -2 -414 1 -430 7 -70 27 -74 120 -7 154 32 16 69 17 438 15 l404 -3 24
-28z m-1 -342 c35 -34 33 -78 -4 -116 l-29 -29 -404 0 c-302 0 -409 3 -428 13
-54 27 -63 94 -20 137 19 19 35 20 440 20 l421 0 24 -25z m-260 -340 c25 -24
32 -65 19 -100 -18 -45 -19 -45 -798 -45 -462 0 -744 4 -761 10 -34 13 -59 69
-46 104 23 59 -14 56 809 56 l753 0 24 -25z m-233 -315 c124 0 130 -1 153 -25
35 -34 33 -78 -5 -116 l-29 -30 -245 3 c-243 3 -245 3 -270 27 -32 30 -34 78
-6 114 26 33 44 37 169 31 57 -2 162 -4 233 -4z m387 -355 c54 -27 60 -96 12
-139 -21 -19 -38 -20 -394 -18 l-372 3 -27 30 c-36 38 -36 73 1 110 l29 29
362 0 c298 0 366 -3 389 -15z"/>
</g>
</svg>
